<?xml version="1.0" encoding="utf-8"?>
<!-- Generator: Adobe Illustrator 22.0.0, SVG Export Plug-In . SVG Version: 6.00 Build 0)  -->
<svg version="1.1" id="Layer_1" xmlns="http://www.w3.org/2000/svg" xmlns:xlink="http://www.w3.org/1999/xlink" x="0px" y="0px"
	 viewBox="0 0 50 39.4" style="enable-background:new 0 0 50 39.4;" xml:space="preserve">
<style type="text/css">
	.st0{fill:#1E4079;}
	.st1{fill:#F04F3F;}
</style>
<g>
	<g>
		<path class="st0" d="M42.9,11.5H33c-0.1-1-0.5-2.6-1.7-4c-1.2-1.2-2.8-1.8-4.7-1.8h-4.4c0,0,0,0,0,0c-0.1,0-0.1,0-0.2,0
			c-0.1,0-0.1,0-0.2,0.1c0.1,0.2,0.2,0.3,0.3,0.6c0,0,0.1,0.3,0.1,0.2c0,0,0,0,0,0.1c0,0,0,0,0,0C22.6,7.1,22.9,7.5,23,8
			c0,0,0,0.1,0,0.1c0.1,0.1,0.1,0.2,0.2,0.3c0,0,0,0,0,0c0,0,0-0.1,0-0.1h3.3c1.3,0,2.3,0.3,3,1.1c1.2,1.2,1.1,3,1.1,3.1l0.1,19.1
			c0,0-12.4,0-12.6,0.1c-0.8-2.1-2.9-3.7-5.3-3.7c-2.4,0-4.5,1.5-5.3,3.7h-2V22c0,0,0.1,0.1,0.1,0.1c0-0.1,0-0.1,0-0.2
			c0,0,0,0-0.1,0c-0.1,0-0.1,0-0.2-0.1c-0.3-0.2-0.7-0.4-1-0.7c-0.1-0.1-0.2-0.2-0.3-0.4c-0.1-0.1-0.2-0.1-0.3-0.2
			c-0.1-0.1-0.2-0.3-0.3-0.5c-0.1,0-0.2,0-0.2,0v13.9h4c0.2,3,2.6,5.4,5.7,5.4c3.1,0,5.5-2.4,5.7-5.4h15.2c0.2,3,2.6,5.4,5.7,5.4
			c3,0,5.5-2.4,5.7-5.4H50v-11L42.9,11.5z M12.8,37c-1.9,0-3.3-1.5-3.3-3.3s1.5-3.3,3.3-3.3s3.3,1.5,3.3,3.3
			C16.2,35.5,14.7,37,12.8,37z M39.5,37c-1.9,0-3.3-1.5-3.3-3.3s1.5-3.3,3.3-3.3c1.9,0,3.3,1.5,3.3,3.3S41.3,37,39.5,37z M47.7,31.7
			l-2.9-0.1c-0.8-2.1-2.9-3.7-5.3-3.7s-4.5,1.5-5.3,3.7h-1.1V14h8.5l4.7,7.7h-8.5v-3.4h2c0.7,0,1.2-0.5,1.2-1.2s-0.5-1.2-1.2-1.2
			h-4.3V24h12.2V31.7z"/>
		<path class="st1" d="M16.6,11.9c0-0.7-0.5-1.2-1.2-1.2h-2.3V5c0-0.7-0.5-1.2-1.2-1.2S10.8,4.3,10.8,5v8.2h4.6
			C16,13.1,16.6,12.6,16.6,11.9z"/>
	</g>
</g>
<path class="st1" d="M5.5,22c1.1,0.7,2.4,1.4,4.1,1.7c0.5,0.1,1.3,0.2,2.3,0.2s2.5-0.1,4.2-0.8c0.6-0.2,1.7-0.7,3-1.6
	c2.2-1.6,3.2-3.6,3.5-4.1s1.3-2.6,1.2-5.4c0-1.7-0.4-3.1-0.6-3.7C23.1,8,22.7,7,22.1,5.9c-1.1-1.8-2.3-2.8-2.5-3.1
	c-3-2.7-6.8-2.8-7.7-2.8C11.2,0,10,0.1,8.6,0.5C7.5,0.8,5.1,1.6,3.1,3.9C2.7,4.3,1.7,5.5,1,7.2c-0.5,1.1-1,2.7-1,4.7
	c0,1.2,0.2,2.1,0.3,2.8C1,17.2,2.3,19,3.2,20C4,20.7,4.4,21.2,5.5,22z M20.4,13.1h1c-0.6,4.3-4,7.8-8.3,8.3v-0.9
	c0-0.7-0.5-1.2-1.2-1.2s-1.2,0.5-1.2,1.2v0.9c-4.3-0.6-7.8-4-8.3-8.3h1c0.7,0,1.2-0.5,1.2-1.2s-0.5-1.2-1.2-1.2h-1
	C3,6,7,2.4,11.9,2.4s8.9,3.7,9.5,8.4h-1c-0.7,0-1.2,0.5-1.2,1.2S19.8,13.1,20.4,13.1z"/>
</svg>
