<?xml version="1.0" encoding="utf-8"?>
<!-- Generator: Adobe Illustrator 22.0.0, SVG Export Plug-In . SVG Version: 6.00 Build 0)  -->
<svg version="1.1" id="Layer_1" xmlns="http://www.w3.org/2000/svg" xmlns:xlink="http://www.w3.org/1999/xlink" x="0px" y="0px"
	 viewBox="0 0 50 35.9" style="enable-background:new 0 0 50 35.9;" xml:space="preserve">
<style type="text/css">
	.st0{fill:#1E4079;}
	.st1{fill:#FFFFFF;}
	.st2{fill:#F04F3F;}
</style>
<g>
	<path class="st0" d="M42.7,35.9H7.3c-4,0-7.3-3.3-7.3-7.3V7.3C0,3.3,3.3,0,7.3,0h35.4c4,0,7.3,3.3,7.3,7.3v21.4
		C50,32.7,46.7,35.9,42.7,35.9z M7.3,2C4.4,2,2,4.4,2,7.3v21.4C2,31.6,4.3,34,7.3,34h35.4c2.9,0,5.3-2.3,5.3-5.3V7.3
		C48,4.4,45.6,2,42.7,2H7.3z"/>
</g>
<g>
	<path class="st0" d="M12.7,21H6.4v-6.4h6.4V21H12.7z M8.4,18.9h2.3v-2.3H8.4V18.9z"/>
</g>
<g>
	<path class="st0" d="M12.7,30.7H6.4v-6.4h6.4v6.4H12.7z M8.4,28.6h2.3v-2.3H8.4V28.6z"/>
</g>
<g>
	<path class="st1" d="M23.3,21h-6.4v-6.4h6.4V21z M18.9,18.9h2.3v-2.3h-2.3V18.9z"/>
</g>
<g>
	<path class="st0" d="M23.3,30.7h-6.4v-6.4h6.4V30.7z M18.9,28.6h2.3v-2.3h-2.3V28.6z"/>
</g>
<g>
	<path class="st0" d="M33.8,30.7h-6.4v-6.4h6.4V30.7z M29.5,28.6h2.3v-2.3h-2.3V28.6z"/>
</g>
<g>
	<path class="st1" d="M44.3,30.7H38v-6.4h6.4v6.4H44.3z M40,28.6h2.3v-2.3H40V28.6z"/>
</g>
<g>
	<g>
		<g>
			<path class="st2" d="M36.6,12.9c-2.3,2.3-4.8,4.8-7.1,7.1c0.5,0,0.9,0,1.4,0c-1.5-1.5-2.9-2.9-4.4-4.4c-0.9-0.9-2.3,0.5-1.4,1.4
				c1.5,1.5,2.9,2.9,4.4,4.4c0.4,0.4,1,0.4,1.4,0c2.3-2.3,4.8-4.8,7.1-7.1C39,13.3,37.6,11.9,36.6,12.9L36.6,12.9z"/>
		</g>
	</g>
</g>
</svg>
