<?xml version="1.0" encoding="utf-8"?>
<!-- Generator: Adobe Illustrator 22.0.0, SVG Export Plug-In . SVG Version: 6.00 Build 0)  -->
<svg version="1.1" id="Layer_1" xmlns="http://www.w3.org/2000/svg" xmlns:xlink="http://www.w3.org/1999/xlink" x="0px" y="0px"
	 viewBox="0 0 50 49.9" style="enable-background:new 0 0 50 49.9;" xml:space="preserve">
<style type="text/css">
	.st0{fill:#F04F3F;}
	.st1{fill:#1E4079;}
</style>
<g>
	<g>
		<path class="st0" d="M39,16.6C39,16.6,39,16.5,39,16.6l-13.5-6.5c-0.3-0.2-0.7-0.2-1,0l-13.4,6.4c-0.1,0-0.1,0.1-0.1,0.1l0,0
			c-0.3,0.2-0.6,0.6-0.6,1V32c0,0.4,0.3,0.8,0.7,1.1l13.4,6.5c0.2,0.1,0.3,0.1,0.5,0.1s0.3-0.1,0.5-0.1l0,0L39,33.1
			c0.4-0.2,0.7-0.6,0.7-1.1V17.6C39.6,17.2,39.4,16.8,39,16.6L39,16.6z M25,22.7l-4-1.9l10.8-5.2l4,1.9l-3.4,1.7L25,22.7z M25,12.4
			l4,1.9l-10.8,5.2l-4-1.9L25,12.4z M12.7,19.5l11.1,5.3v11.9l-11.1-5.3C12.7,31.4,12.7,19.5,12.7,19.5z M26.2,36.7V24.8L34,21
			l3.3-1.6v11.9L26.2,36.7z"/>
		<path class="st0" d="M20.6,26.1l-4-1.9c-0.6-0.3-1.3-0.1-1.6,0.6c-0.3,0.6-0.1,1.3,0.6,1.6l4,1.9c0.2,0.1,0.3,0.1,0.5,0.1
			c0.4,0,0.8-0.2,1.1-0.7C21.4,27.1,21.2,26.4,20.6,26.1z"/>
		<path class="st1" d="M10.8,7.3c9-7.2,21.7-6.4,29.8,1.2L37,8.2c-0.6-0.1-1.2,0.4-1.3,1.1c-0.1,0.7,0.4,1.2,1.1,1.3l6.8,0.7
			c0.1,0,0.1,0,0.1,0c0.6,0,1.1-0.4,1.2-1.1l0.7-6.8c0.1-0.7-0.4-1.2-1.1-1.3c-0.7-0.1-1.2,0.4-1.3,1.1l-0.4,4.2
			c-8.9-9-23.3-10-33.4-1.9C0.7,12.5-2.3,24,1.8,34.3C2,34.7,2.5,35,2.9,35c0.2,0,0.3,0,0.4-0.1c0.6-0.2,0.9-1,0.7-1.5
			C0.3,24.1,3,13.7,10.8,7.3z"/>
		<path class="st1" d="M48.1,15.4c-0.2-0.6-1-0.9-1.5-0.6c-0.6,0.2-0.9,1-0.6,1.5c3.8,9.2,1.1,20-6.7,26.3c-9,7.2-21.7,6.5-29.8-1.2
			l3.7,0.4c0.7,0.1,1.2-0.4,1.3-1.1c0.1-0.7-0.4-1.2-1.1-1.3l-6.8-0.7C6.3,38.6,6,38.8,5.8,39c-0.2,0.2-0.4,0.5-0.4,0.8l-0.8,6.8
			c-0.1,0.7,0.4,1.2,1.1,1.3c0.1,0,0.1,0,0.1,0c0.6,0,1.1-0.4,1.2-1.1l0.4-4.2c4.8,4.9,11.3,7.3,17.7,7.3c5.5,0,11-1.8,15.6-5.5
			C49.3,37.5,52.3,25.6,48.1,15.4z"/>
	</g>
</g>
</svg>
