<?xml version="1.0" encoding="utf-8"?>
<!-- Generator: Adobe Illustrator 22.0.0, SVG Export Plug-In . SVG Version: 6.00 Build 0)  -->
<svg version="1.1" id="Layer_1" xmlns="http://www.w3.org/2000/svg" xmlns:xlink="http://www.w3.org/1999/xlink" x="0px" y="0px"
	 viewBox="0 0 50 42.3" style="enable-background:new 0 0 50 42.3;" xml:space="preserve">
<style type="text/css">
	.st0{fill:#F04F3F;}
	.st1{fill:#1E4079;}
</style>
<g>
	<g>
		<path class="st0" d="M34.3,12.7l-5.6-0.8l-2.5-5.1c-0.2-0.4-0.6-0.7-1-0.7s-0.8,0.3-1.1,0.7L21.6,12L16,12.7
			c-0.4,0.1-0.8,0.4-0.9,0.8c-0.1,0.4,0,0.9,0.3,1.2l4,3.9l-0.9,5.6c-0.1,0.4,0.1,0.9,0.4,1.2c0.3,0.3,0.8,0.3,1.2,0.1l5-2.7l5,2.7
			c0.2,0.1,0.3,0.1,0.6,0.1c0.2,0,0.5-0.1,0.7-0.2c0.3-0.3,0.6-0.7,0.4-1.2l-0.9-5.6l4-3.9c0.3-0.3,0.4-0.8,0.3-1.2
			C35.1,13.1,34.8,12.8,34.3,12.7z M28.9,17.4c-0.3,0.3-0.4,0.7-0.3,1.1l0.7,3.9l-3.4-1.8c-0.2-0.1-0.3-0.1-0.6-0.1
			c-0.2,0-0.4,0.1-0.6,0.1l-3.4,1.8l0.7-3.9c0.1-0.4-0.1-0.8-0.3-1.1l-2.8-2.7l3.9-0.6c0.4-0.1,0.7-0.3,0.9-0.6l1.7-3.5l1.7,3.5
			c0.2,0.3,0.5,0.6,0.9,0.6l3.9,0.6L28.9,17.4z"/>
		<path class="st1" d="M49.7,32l-8.9-8.9c2.3-6,1.1-13.2-3.8-18.1c-3.2-3.2-7.5-5-12-5s-8.8,1.8-12,5C8.1,9.8,6.8,16.9,9,22.9
			l-8.6,8.6c-0.3,0.3-0.4,0.8-0.3,1.2c0.2,0.4,0.6,0.7,1,0.8l6.8,0.4l0.4,6.8c0.1,0.4,0.3,0.8,0.8,1c0.1,0.1,0.3,0.1,0.4,0.1
			c0.3,0,0.6-0.1,0.8-0.3l8.6-8.6c1.9,0.7,3.9,1.1,5.9,1.1s3.9-0.3,5.7-1l9,9c0.2,0.2,0.5,0.3,0.8,0.3c0.1,0,0.3,0,0.4-0.1
			c0.4-0.2,0.7-0.6,0.8-1l0.6-6.8l6.8-0.4c0.4-0.1,0.8-0.3,1-0.8C50.1,32.8,50,32.3,49.7,32z M10.5,38.1l-0.3-5.3
			c-0.1-0.6-0.5-1.1-1.1-1.1l-5.3-0.3l6.3-6.3c0.8,1.4,1.7,2.7,2.9,3.8c1.2,1.2,2.4,2.1,3.8,2.9L10.5,38.1z M14.6,27.4
			c-5.7-5.7-5.7-15,0-20.7c2.8-2.8,6.5-4.3,10.4-4.3S32.6,4,35.4,6.7c5.7,5.7,5.7,15,0,20.8c-2.8,2.8-6.5,4.3-10.4,4.3
			C21,31.7,17.4,30.1,14.6,27.4z M41,32.2c-0.6,0.1-1.1,0.5-1.1,1.1l-0.3,5.3L33,32c1.4-0.8,2.8-1.8,4-3c1.1-1.1,2.1-2.3,2.8-3.7
			l6.5,6.5L41,32.2z"/>
	</g>
</g>
</svg>
