<?xml version="1.0" encoding="utf-8"?>
<!-- Generator: Adobe Illustrator 22.0.0, SVG Export Plug-In . SVG Version: 6.00 Build 0)  -->
<svg version="1.1" id="Layer_1" xmlns="http://www.w3.org/2000/svg" xmlns:xlink="http://www.w3.org/1999/xlink" x="0px" y="0px"
	 viewBox="0 0 47.4 46.5" style="enable-background:new 0 0 47.4 46.5;" xml:space="preserve">
<style type="text/css">
	.st0{fill:#1E4079;}
	.st1{fill:#F04F3F;}
</style>
<g>
	<g>
		<path class="st0" d="M45.5,15.9l-3.2-3.2c-0.8-0.8-1.8-1.1-3-1.1c-1.1,0-2.1,0.5-3,1.1c-0.1,0.1-0.1,0.1-0.1,0.1L32,18.2
			c-0.7,0.8-1.1,1.8-1.1,2.9c0,1.1,0.5,2.1,1.1,3l3.5,3.5c0.3,0.3,0.9,0.8,1.4,1.1c-2.1,4.3-6.2,6.6-8.1,7.3c-0.1-0.3-0.5-0.7-0.8-1
			l-3.4-3.5c-0.8-0.8-1.8-1.1-3-1.1c-1,0-2.1,0.3-2.7,1.1l-5.5,4.1c-0.1,0.1-0.1,0.1-0.2,0.1c-0.8,0.8-1.1,1.8-1.1,3
			c0,1.1,0.5,2.1,1.1,3l3.4,3.4c1.1,1.1,4.5,1.4,5.7,1.4c1.1,0,2.2-0.1,3.3-0.2c3.8-0.5,9.4-2.1,14.3-7.1c5.5-5.5,7-11,7.3-14.6
			C47.5,20.1,46.4,16.9,45.5,15.9z M45.1,24.1c-0.2,3.3-1.7,8.4-6.8,13.5c-4.6,4.6-9.7,6.1-13.2,6.6c-1,0.1-2.1,0.1-3,0.1
			c-2.7,0-4.1-0.5-4.3-0.8l-3.4-3.4c-0.5-0.5-0.7-1-0.7-1.6c0-0.6,0.2-1.1,0.7-1.6l5.6-4.1c0.1-0.1,0.1-0.1,0.1-0.1
			c0.5-0.3,0.9-0.6,1.5-0.6c0.6,0,1.1,0.2,1.5,0.7c0,0,3.7,3.8,3.8,3.8l-2.9,0.8c-0.5,0.1-0.8,0.7-0.7,1.1c0.1,0.5,0.5,0.7,0.9,0.7
			c0.1,0,0.1,0,0.2-0.1l4-1.1l0,0c1.5-0.3,7.4-2.9,10.2-8.8C38.8,29,39,29,39,28.8l1.9-4.2c0.2-0.5,0-1.1-0.5-1.4s-1.1,0-1.3,0.5
			l-1.4,2.9c-0.3-0.2-0.7-0.6-0.8-0.8l-3.8-3.3c-0.5-0.5-0.7-1-0.7-1.6c0-0.6,0.2-1.1,0.6-1.5l0.1-0.1l4.2-5.1
			c0.5-0.5,1-0.7,1.6-0.7s1.1,0.2,1.6,0.7l3.2,3.2C44.3,17.7,45.6,20.2,45.1,24.1z"/>
		<path class="st1" d="M21.1,25.4l5.2,1.8c0.1,0.1,0.2,0.1,0.4,0.1l0,0c0.6,0,1.2-0.5,1.2-1.2c0-0.1,0-0.3-0.1-0.4l-0.9-4.9
			c1.8-2.2,2.7-4.9,2.7-7.6C29.5,5.9,22.9,0,14.8,0S0,5.9,0,13.2s6.6,13.2,14.8,13.2C16.5,26.4,19.3,26,21.1,25.4z M2.3,13.2
			c0-6,5.6-11,12.5-11s12.5,4.9,12.5,11c0,2.4-0.9,4.7-2.5,6.6c-0.2,0.3-0.3,0.6-0.3,0.9l0.7,3.6L21.5,23c-0.2,0-0.3,0-0.5,0
			c-0.1,0-0.3,0-0.4,0.1c-1.5,0.5-4.4,1-5.9,1C7.9,24.1,2.3,19.2,2.3,13.2z"/>
		<path class="st1" d="M7,11.6L7,11.6c-0.7,0-1.2,0.5-1.2,1.2S6.4,14,7,14s1.2-0.5,1.2-1.2S7.7,11.6,7,11.6z"/>
		<path class="st1" d="M16.7,13.8h0.1c0.6,0,1.2-0.5,1.2-1.2c0-0.6-0.5-1.2-1.2-1.2h-0.1c-0.6,0-1.2,0.5-1.2,1.2
			C15.5,13.3,16.1,13.8,16.7,13.8z"/>
		<path class="st1" d="M11.9,11.6h-0.1c-0.6,0-1.2,0.5-1.2,1.2s0.5,1.2,1.2,1.2h0.1c0.6,0,1.2-0.5,1.2-1.2S12.6,11.6,11.9,11.6z"/>
		<path class="st1" d="M21.6,13.8c0.6,0,1.2-0.5,1.2-1.2c0-0.6-0.5-1.2-1.2-1.2h-0.1c-0.6,0-1.1,0.5-1.1,1.2S21,13.8,21.6,13.8z"/>
	</g>
</g>
</svg>
