<?xml version="1.0" encoding="utf-8"?>
<!-- Generator: Adobe Illustrator 22.0.0, SVG Export Plug-In . SVG Version: 6.00 Build 0)  -->
<svg version="1.1" id="Layer_1" xmlns="http://www.w3.org/2000/svg" xmlns:xlink="http://www.w3.org/1999/xlink" x="0px" y="0px"
	 viewBox="0 0 50 50" style="enable-background:new 0 0 50 50;" xml:space="preserve">
<style type="text/css">
	.st0{fill:#1E4079;}
	.st1{fill:#F04F3F;}
</style>
<g>
	<g>
		<path class="st0" d="M25,50l-5.4-5.5l-7.4,1.9l-1.8-6.9l-6.9-1.8l1.9-7.4L0,25l5.5-5.4l-1.9-7.4l6.9-1.8l1.8-6.9l7.4,1.9L25,0
			l5.5,5.5l7.4-1.9l1.8,6.9l6.9,1.8l-1.9,7.4l5.5,5.4l-5.5,5.5l1.9,7.4l-6.9,1.8l-1.8,6.7l-7.4-1.9L25,50z M20.4,41.8l4.6,4.6
			l4.6-4.6l6.4,1.6l1.5-5.9l5.9-1.5l-1.6-6.4l4.6-4.6l-4.6-4.6l1.6-6.4l-5.8-1.6l-1.5-5.9l-6.4,1.6L25,3.5l-4.6,4.6L14,6.5l-1.7,5.9
			l-5.9,1.5L8,20.3l-4.6,4.6L8,29.5l-1.6,6.4l5.9,1.5l1.5,5.9L20.4,41.8z"/>
	</g>
</g>
<g>
	<g>
		<g>
			<path class="st1" d="M25,35.2c-0.7,0-1.2-0.6-1.2-1.2V13c0-0.7,0.6-1.2,1.2-1.2c0.7,0,1.2,0.6,1.2,1.2v21
				C26.2,34.6,25.6,35.2,25,35.2z"/>
		</g>
		<g>
			<path class="st1" d="M25.1,37l-9.2-9.1c-0.5-0.5-0.5-1.2,0-1.7c0.5-0.5,1.2-0.5,1.7,0l7.4,7.4l7-7c0.5-0.5,1.2-0.5,1.7,0
				s0.5,1.2,0,1.7L25.1,37z"/>
		</g>
	</g>
</g>
</svg>
